<?xml version="1.0" encoding="UTF-8" standalone="no"?><svg xmlns="http://www.w3.org/2000/svg" xmlns:xlink="http://www.w3.org/1999/xlink" contentScriptType="application/ecmascript" contentStyleType="text/css" height="451px" preserveAspectRatio="none" style="width:554px;height:451px;" version="1.1" viewBox="0 0 554 451" width="554px" zoomAndPan="magnify"><defs><filter height="300%" id="f13st6kipvtmxk" width="300%" x="-1" y="-1"><feGaussianBlur result="blurOut" stdDeviation="2.0"/><feColorMatrix in="blurOut" result="blurOut2" type="matrix" values="0 0 0 0 0 0 0 0 0 0 0 0 0 0 0 0 0 0 .4 0"/><feOffset dx="4.0" dy="4.0" in="blurOut2" result="blurOut3"/><feBlend in="SourceGraphic" in2="blurOut3" mode="normal"/></filter></defs><g><line style="stroke: #A80036; stroke-width: 1.0; stroke-dasharray: 5.0,5.0;" x1="41" x2="41" y1="38.2969" y2="411.0234"/><line style="stroke: #A80036; stroke-width: 1.0; stroke-dasharray: 5.0,5.0;" x1="209" x2="209" y1="38.2969" y2="411.0234"/><line style="stroke: #A80036; stroke-width: 1.0; stroke-dasharray: 5.0,5.0;" x1="362" x2="362" y1="38.2969" y2="411.0234"/><line style="stroke: #A80036; stroke-width: 1.0; stroke-dasharray: 5.0,5.0;" x1="438" x2="438" y1="38.2969" y2="411.0234"/><line style="stroke: #A80036; stroke-width: 1.0; stroke-dasharray: 5.0,5.0;" x1="514" x2="514" y1="38.2969" y2="411.0234"/><rect fill="#FEFECE" filter="url(#f13st6kipvtmxk)" height="30.2969" style="stroke: #A80036; stroke-width: 1.5;" width="62" x="8" y="3"/><text fill="#000000" font-family="sans-serif" font-size="14" lengthAdjust="spacingAndGlyphs" textLength="48" x="15" y="22.9951">Client1</text><rect fill="#FEFECE" filter="url(#f13st6kipvtmxk)" height="30.2969" style="stroke: #A80036; stroke-width: 1.5;" width="62" x="8" y="410.0234"/><text fill="#000000" font-family="sans-serif" font-size="14" lengthAdjust="spacingAndGlyphs" textLength="48" x="15" y="430.0186">Client1</text><rect fill="#FEFECE" filter="url(#f13st6kipvtmxk)" height="30.2969" style="stroke: #A80036; stroke-width: 1.5;" width="58" x="178" y="3"/><text fill="#000000" font-family="sans-serif" font-size="14" lengthAdjust="spacingAndGlyphs" textLength="44" x="185" y="22.9951">Server</text><rect fill="#FEFECE" filter="url(#f13st6kipvtmxk)" height="30.2969" style="stroke: #A80036; stroke-width: 1.5;" width="58" x="178" y="410.0234"/><text fill="#000000" font-family="sans-serif" font-size="14" lengthAdjust="spacingAndGlyphs" textLength="44" x="185" y="430.0186">Server</text><rect fill="#FEFECE" filter="url(#f13st6kipvtmxk)" height="30.2969" style="stroke: #A80036; stroke-width: 1.5;" width="62" x="329" y="3"/><text fill="#000000" font-family="sans-serif" font-size="14" lengthAdjust="spacingAndGlyphs" textLength="48" x="336" y="22.9951">Client2</text><rect fill="#FEFECE" filter="url(#f13st6kipvtmxk)" height="30.2969" style="stroke: #A80036; stroke-width: 1.5;" width="62" x="329" y="410.0234"/><text fill="#000000" font-family="sans-serif" font-size="14" lengthAdjust="spacingAndGlyphs" textLength="48" x="336" y="430.0186">Client2</text><rect fill="#FEFECE" filter="url(#f13st6kipvtmxk)" height="30.2969" style="stroke: #A80036; stroke-width: 1.5;" width="62" x="405" y="3"/><text fill="#000000" font-family="sans-serif" font-size="14" lengthAdjust="spacingAndGlyphs" textLength="48" x="412" y="22.9951">Client3</text><rect fill="#FEFECE" filter="url(#f13st6kipvtmxk)" height="30.2969" style="stroke: #A80036; stroke-width: 1.5;" width="62" x="405" y="410.0234"/><text fill="#000000" font-family="sans-serif" font-size="14" lengthAdjust="spacingAndGlyphs" textLength="48" x="412" y="430.0186">Client3</text><rect fill="#FEFECE" filter="url(#f13st6kipvtmxk)" height="30.2969" style="stroke: #A80036; stroke-width: 1.5;" width="62" x="481" y="3"/><text fill="#000000" font-family="sans-serif" font-size="14" lengthAdjust="spacingAndGlyphs" textLength="48" x="488" y="22.9951">Client4</text><rect fill="#FEFECE" filter="url(#f13st6kipvtmxk)" height="30.2969" style="stroke: #A80036; stroke-width: 1.5;" width="62" x="481" y="410.0234"/><text fill="#000000" font-family="sans-serif" font-size="14" lengthAdjust="spacingAndGlyphs" textLength="48" x="488" y="430.0186">Client4</text><polygon fill="#A80036" points="197,65.4297,207,69.4297,197,73.4297,201,69.4297" style="stroke: #A80036; stroke-width: 1.0;"/><line style="stroke: #A80036; stroke-width: 1.0;" x1="41" x2="203" y1="69.4297" y2="69.4297"/><text fill="#000000" font-family="sans-serif" font-size="13" lengthAdjust="spacingAndGlyphs" textLength="144" x="48" y="64.3638">call CardSelect service</text><path d="M132,82.4297 L132,122.4297 L282,122.4297 L282,92.4297 L272,82.4297 L132,82.4297 " fill="#FBFB77" filter="url(#f13st6kipvtmxk)" style="stroke: #A80036; stroke-width: 1.0;"/><path d="M272,82.4297 L272,92.4297 L282,92.4297 L272,82.4297 " fill="#FBFB77" style="stroke: #A80036; stroke-width: 1.0;"/><text fill="#000000" font-family="sans-serif" font-size="13" lengthAdjust="spacingAndGlyphs" textLength="129" x="138" y="99.4966">server verifies move</text><text fill="#000000" font-family="sans-serif" font-size="13" lengthAdjust="spacingAndGlyphs" textLength="124" x="142" y="114.6294">and updates model</text><path d="M65,136.6953 L65,176.6953 L348,176.6953 L348,146.6953 L338,136.6953 L65,136.6953 " fill="#FBFB77" filter="url(#f13st6kipvtmxk)" style="stroke: #A80036; stroke-width: 1.0;"/><path d="M338,136.6953 L338,146.6953 L348,146.6953 L338,136.6953 " fill="#FBFB77" style="stroke: #A80036; stroke-width: 1.0;"/><text fill="#000000" font-family="sans-serif" font-size="13" lengthAdjust="spacingAndGlyphs" textLength="262" x="71" y="153.7622">server verifies common objectives states</text><text fill="#000000" font-family="sans-serif" font-size="13" lengthAdjust="spacingAndGlyphs" textLength="124" x="75" y="168.895">and updates model</text><polygon fill="#A80036" points="52,203.0938,42,207.0938,52,211.0938,48,207.0938" style="stroke: #A80036; stroke-width: 1.0;"/><line style="stroke: #A80036; stroke-width: 1.0;" x1="46" x2="208" y1="207.0938" y2="207.0938"/><text fill="#000000" font-family="sans-serif" font-size="13" lengthAdjust="spacingAndGlyphs" textLength="104" x="58" y="202.0278">return call result</text><path d="M87,220.0938 L87,275.0938 L327,275.0938 L327,230.0938 L317,220.0938 L87,220.0938 " fill="#FBFB77" filter="url(#f13st6kipvtmxk)" style="stroke: #A80036; stroke-width: 1.0;"/><path d="M317,220.0938 L317,230.0938 L327,230.0938 L317,220.0938 " fill="#FBFB77" style="stroke: #A80036; stroke-width: 1.0;"/><text fill="#000000" font-family="sans-serif" font-size="13" lengthAdjust="spacingAndGlyphs" textLength="138" x="93" y="237.1606">Update contains both</text><text fill="#000000" font-family="sans-serif" font-size="13" lengthAdjust="spacingAndGlyphs" textLength="144" x="97" y="252.2935">the new tabletop state</text><text fill="#000000" font-family="sans-serif" font-size="13" lengthAdjust="spacingAndGlyphs" textLength="215" x="97" y="267.4263">and the common objectives state</text><polygon fill="#A80036" points="52,301.625,42,305.625,52,309.625,48,305.625" style="stroke: #A80036; stroke-width: 1.0;"/><line style="stroke: #A80036; stroke-width: 1.0;" x1="46" x2="208" y1="305.625" y2="305.625"/><text fill="#000000" font-family="sans-serif" font-size="13" lengthAdjust="spacingAndGlyphs" textLength="129" x="58" y="300.5591">Update ServerEvent</text><polygon fill="#A80036" points="350,330.7578,360,334.7578,350,338.7578,354,334.7578" style="stroke: #A80036; stroke-width: 1.0;"/><line style="stroke: #A80036; stroke-width: 1.0;" x1="209" x2="356" y1="334.7578" y2="334.7578"/><text fill="#000000" font-family="sans-serif" font-size="13" lengthAdjust="spacingAndGlyphs" textLength="129" x="216" y="329.6919">Update ServerEvent</text><polygon fill="#A80036" points="426,359.8906,436,363.8906,426,367.8906,430,363.8906" style="stroke: #A80036; stroke-width: 1.0;"/><line style="stroke: #A80036; stroke-width: 1.0;" x1="209" x2="432" y1="363.8906" y2="363.8906"/><text fill="#000000" font-family="sans-serif" font-size="13" lengthAdjust="spacingAndGlyphs" textLength="129" x="216" y="358.8247">Update ServerEvent</text><polygon fill="#A80036" points="502,389.0234,512,393.0234,502,397.0234,506,393.0234" style="stroke: #A80036; stroke-width: 1.0;"/><line style="stroke: #A80036; stroke-width: 1.0;" x1="209" x2="508" y1="393.0234" y2="393.0234"/><text fill="#000000" font-family="sans-serif" font-size="13" lengthAdjust="spacingAndGlyphs" textLength="129" x="216" y="387.9575">Update ServerEvent</text><!--MD5=[99c5e7d66a9d4bf790c854b6449410df]
@startuml
Client1 -> Server: call CardSelect service
note over Server: server verifies move\n and updates model
note over Server: server verifies common objectives states\n and updates model
Server -> Client1: return call result
note over Server: Update contains both\n the new tabletop state\n and the common objectives state
Server -> Client1: Update ServerEvent
Server -> Client2: Update ServerEvent
Server -> Client3: Update ServerEvent
Server -> Client4: Update ServerEvent
@enduml

PlantUML version 1.2020.02(Sun Mar 01 11:22:07 CET 2020)
(GPL source distribution)
Java Runtime: OpenJDK Runtime Environment
JVM: OpenJDK 64-Bit Server VM
Java Version: 17.0.7+7-Ubuntu-0ubuntu122.04.2
Operating System: Linux
Default Encoding: UTF-8
Language: en
Country: US
--></g></svg>