<?xml version="1.0" encoding="UTF-8" standalone="no"?><svg xmlns="http://www.w3.org/2000/svg" xmlns:xlink="http://www.w3.org/1999/xlink" contentScriptType="application/ecmascript" contentStyleType="text/css" height="457px" preserveAspectRatio="none" style="width:453px;height:457px;" version="1.1" viewBox="0 0 453 457" width="453px" zoomAndPan="magnify"><defs><filter height="300%" id="firu211jwn5ti" width="300%" x="-1" y="-1"><feGaussianBlur result="blurOut" stdDeviation="2.0"/><feColorMatrix in="blurOut" result="blurOut2" type="matrix" values="0 0 0 0 0 0 0 0 0 0 0 0 0 0 0 0 0 0 .4 0"/><feOffset dx="4.0" dy="4.0" in="blurOut2" result="blurOut3"/><feBlend in="SourceGraphic" in2="blurOut3" mode="normal"/></filter></defs><g><line style="stroke: #A80036; stroke-width: 1.0; stroke-dasharray: 5.0,5.0;" x1="109" x2="109" y1="38.2969" y2="417.625"/><line style="stroke: #A80036; stroke-width: 1.0; stroke-dasharray: 5.0,5.0;" x1="344.5" x2="344.5" y1="38.2969" y2="417.625"/><rect fill="#FEFECE" filter="url(#firu211jwn5ti)" height="30.2969" style="stroke: #A80036; stroke-width: 1.5;" width="53" x="81" y="3"/><text fill="#000000" font-family="sans-serif" font-size="14" lengthAdjust="spacingAndGlyphs" textLength="39" x="88" y="22.9951">Client</text><rect fill="#FEFECE" filter="url(#firu211jwn5ti)" height="30.2969" style="stroke: #A80036; stroke-width: 1.5;" width="53" x="81" y="416.625"/><text fill="#000000" font-family="sans-serif" font-size="14" lengthAdjust="spacingAndGlyphs" textLength="39" x="88" y="436.6201">Client</text><rect fill="#FEFECE" filter="url(#firu211jwn5ti)" height="30.2969" style="stroke: #A80036; stroke-width: 1.5;" width="58" x="313.5" y="3"/><text fill="#000000" font-family="sans-serif" font-size="14" lengthAdjust="spacingAndGlyphs" textLength="44" x="320.5" y="22.9951">Server</text><rect fill="#FEFECE" filter="url(#firu211jwn5ti)" height="30.2969" style="stroke: #A80036; stroke-width: 1.5;" width="58" x="313.5" y="416.625"/><text fill="#000000" font-family="sans-serif" font-size="14" lengthAdjust="spacingAndGlyphs" textLength="44" x="320.5" y="436.6201">Server</text><rect fill="#EEEEEE" filter="url(#firu211jwn5ti)" height="3" style="stroke: #EEEEEE; stroke-width: 1.0;" width="438" x="3" y="68.8633"/><line style="stroke: #000000; stroke-width: 1.0;" x1="3" x2="441" y1="68.8633" y2="68.8633"/><line style="stroke: #000000; stroke-width: 1.0;" x1="3" x2="441" y1="71.8633" y2="71.8633"/><rect fill="#EEEEEE" filter="url(#firu211jwn5ti)" height="23.1328" style="stroke: #000000; stroke-width: 2.0;" width="109" x="167.5" y="58.2969"/><text fill="#000000" font-family="sans-serif" font-size="13" font-weight="bold" lengthAdjust="spacingAndGlyphs" textLength="90" x="173.5" y="74.3638">Registration</text><path d="M60,96.4297 L60,121.4297 L389,121.4297 L389,106.4297 L379,96.4297 L60,96.4297 " fill="#FBFB77" filter="url(#firu211jwn5ti)" style="stroke: #A80036; stroke-width: 1.0;"/><path d="M379,96.4297 L379,106.4297 L389,106.4297 L379,96.4297 " fill="#FBFB77" style="stroke: #A80036; stroke-width: 1.0;"/><text fill="#000000" font-family="sans-serif" font-size="13" lengthAdjust="spacingAndGlyphs" textLength="308" x="66" y="113.4966">Client registers to server using the login process</text><rect fill="#EEEEEE" filter="url(#firu211jwn5ti)" height="3" style="stroke: #EEEEEE; stroke-width: 1.0;" width="438" x="3" y="151.1289"/><line style="stroke: #000000; stroke-width: 1.0;" x1="3" x2="441" y1="151.1289" y2="151.1289"/><line style="stroke: #000000; stroke-width: 1.0;" x1="3" x2="441" y1="154.1289" y2="154.1289"/><rect fill="#EEEEEE" filter="url(#firu211jwn5ti)" height="23.1328" style="stroke: #000000; stroke-width: 2.0;" width="118" x="163" y="140.5625"/><text fill="#000000" font-family="sans-serif" font-size="13" font-weight="bold" lengthAdjust="spacingAndGlyphs" textLength="99" x="169" y="156.6294">Lobby search</text><polygon fill="#A80036" points="332.5,190.8281,342.5,194.8281,332.5,198.8281,336.5,194.8281" style="stroke: #A80036; stroke-width: 1.0;"/><line style="stroke: #A80036; stroke-width: 1.0;" x1="109.5" x2="338.5" y1="194.8281" y2="194.8281"/><text fill="#000000" font-family="sans-serif" font-size="13" lengthAdjust="spacingAndGlyphs" textLength="147" x="116.5" y="189.7622">Call Lobbies list service</text><polygon fill="#A80036" points="120.5,219.9609,110.5,223.9609,120.5,227.9609,116.5,223.9609" style="stroke: #A80036; stroke-width: 1.0;"/><line style="stroke: #A80036; stroke-width: 1.0;" x1="114.5" x2="343.5" y1="223.9609" y2="223.9609"/><text fill="#000000" font-family="sans-serif" font-size="13" lengthAdjust="spacingAndGlyphs" textLength="129" x="126.5" y="218.895">Return list of lobbies</text><path d="M29,236.9609 L29,261.9609 L186,261.9609 L186,246.9609 L176,236.9609 L29,236.9609 " fill="#FBFB77" filter="url(#firu211jwn5ti)" style="stroke: #A80036; stroke-width: 1.0;"/><path d="M176,236.9609 L176,246.9609 L186,246.9609 L176,236.9609 " fill="#FBFB77" style="stroke: #A80036; stroke-width: 1.0;"/><text fill="#000000" font-family="sans-serif" font-size="13" lengthAdjust="spacingAndGlyphs" textLength="136" x="35" y="254.0278">Chooses lobby to join</text><polygon fill="#A80036" points="332.5,288.2266,342.5,292.2266,332.5,296.2266,336.5,292.2266" style="stroke: #A80036; stroke-width: 1.0;"/><line style="stroke: #A80036; stroke-width: 1.0;" x1="109.5" x2="338.5" y1="292.2266" y2="292.2266"/><text fill="#000000" font-family="sans-serif" font-size="13" lengthAdjust="spacingAndGlyphs" textLength="136" x="116.5" y="287.1606">Call join lobby service</text><path d="M252,305.2266 L252,330.2266 L432,330.2266 L432,315.2266 L422,305.2266 L252,305.2266 " fill="#FBFB77" filter="url(#firu211jwn5ti)" style="stroke: #A80036; stroke-width: 1.0;"/><path d="M422,305.2266 L422,315.2266 L432,315.2266 L422,305.2266 " fill="#FBFB77" style="stroke: #A80036; stroke-width: 1.0;"/><text fill="#000000" font-family="sans-serif" font-size="13" lengthAdjust="spacingAndGlyphs" textLength="159" x="258" y="322.2935">Verify if lobby is available</text><polygon fill="#A80036" points="120.5,356.4922,110.5,360.4922,120.5,364.4922,116.5,360.4922" style="stroke: #A80036; stroke-width: 1.0;"/><line style="stroke: #A80036; stroke-width: 1.0;" x1="114.5" x2="343.5" y1="360.4922" y2="360.4922"/><text fill="#000000" font-family="sans-serif" font-size="13" lengthAdjust="spacingAndGlyphs" textLength="211" x="126.5" y="355.4263">Return result of join lobby service</text><path d="M8,373.4922 L8,398.4922 L208,398.4922 L208,383.4922 L198,373.4922 L8,373.4922 " fill="#FBFB77" filter="url(#firu211jwn5ti)" style="stroke: #A80036; stroke-width: 1.0;"/><path d="M198,373.4922 L198,383.4922 L208,383.4922 L198,373.4922 " fill="#FBFB77" style="stroke: #A80036; stroke-width: 1.0;"/><text fill="#000000" font-family="sans-serif" font-size="13" lengthAdjust="spacingAndGlyphs" textLength="179" x="14" y="390.5591">Wait for other players to join</text><!--MD5=[18859bd65fed90f0d4f7706b94e9894e]
@startuml
participant "Client" as C
participant "Server" as S

== Registration ==

note over C, S: Client registers to server using the login process

== Lobby search ==

C -> S: Call Lobbies list service
S -> C: Return list of lobbies
note over C: Chooses lobby to join
C -> S: Call join lobby service
note over S: Verify if lobby is available
S -> C: Return result of join lobby service
note over C: Wait for other players to join

@enduml

PlantUML version 1.2020.02(Sun Mar 01 11:22:07 CET 2020)
(GPL source distribution)
Java Runtime: OpenJDK Runtime Environment
JVM: OpenJDK 64-Bit Server VM
Java Version: 17.0.7+7-Ubuntu-0ubuntu122.04.2
Operating System: Linux
Default Encoding: UTF-8
Language: en
Country: US
--></g></svg>